<?xml version="1.0" encoding="UTF-8"?>
<svg id="Calque_1" xmlns="http://www.w3.org/2000/svg" xmlns:xlink="http://www.w3.org/1999/xlink" version="1.1" viewBox="0 0 64 64">
  <!-- Generator: Adobe Illustrator 30.0.0, SVG Export Plug-In . SVG Version: 2.1.1 Build 123)  -->
  <defs>
    <style>
      .st0 {
        opacity: .22;
      }

      .st0, .st1 {
        fill: #fff;
      }

      .st2 {
        fill: #d84a4a;
      }

      .st3 {
        fill: url(#Dégradé_sans_nom_49);
      }
    </style>
    <linearGradient id="Dégradé_sans_nom_49" data-name="Dégradé sans nom 49" x1="31.97" y1="2.95" x2="31.97" y2="63.01" gradientUnits="userSpaceOnUse">
      <stop offset="0" stop-color="#eb6b56"/>
      <stop offset="1" stop-color="#e25041"/>
    </linearGradient>
  </defs>
  <path class="st2" d="M59.62,63.9H4.31c-2.33,0-4.23-1.9-4.23-4.23V4.37C.08,2.03,1.98.14,4.31.14h55.31c2.33,0,4.23,1.9,4.23,4.23v55.31c0,2.33-1.9,4.23-4.23,4.23ZM4.31.66C2.27.66.6,2.32.6,4.37v55.31c0,2.04,1.66,3.71,3.71,3.71h55.31c2.04,0,3.71-1.66,3.71-3.71V4.37c0-2.04-1.66-3.71-3.71-3.71H4.31Z"/>
  <rect class="st3" x=".34" y=".43" width="63.24" height="63.24" rx="3.97" ry="3.97"/>
  <path class="st0" d="M63.53,3.72s-1.31-2.57-3.46-2.55c-1.35.01-55.87-.04-55.87-.04,0,0-3.04.32-3.85,2.65C.92,1.45,2.83.44,4.32.42s55.56.03,55.56.03c0,0,3.17.17,3.65,3.27Z"/>
  <path class="st1" d="M44.04,35.58v.5c-.09.41-.61,1-1.04,1h-2.73v1.26h1.47c.56,0,1.05.75,1.04,1.29s-.51,1.22-1.04,1.22h-1.47v2.73c0,.16-.25.57-.37.69-.78.75-2.12.21-2.14-.88.14-2.45-.18-5.11,0-7.54.05-.68.4-1.19,1.11-1.28.91-.11,3.01-.09,3.95,0,.66.06,1.02.39,1.22,1.01Z"/>
  <path class="st1" d="M30.66,34.6c.89-.13,2.7-.07,3.53.27,2.56,1.02,2.51,3.93,2.33,6.28-.24,3.09-3.15,3.74-5.74,3.48-.69-.07-1.11-.54-1.16-1.22-.21-2.44.16-5.19,0-7.66.05-.58.47-1.06,1.05-1.15ZM32.12,42.11c.96.09,1.79-.15,1.89-1.22.06-.67.05-1.84,0-2.52-.08-1.13-.87-1.37-1.89-1.28v5.02Z"/>
  <path class="st1" d="M23.96,40.86v2.73c0,.16-.25.57-.37.69-.78.75-2.12.21-2.14-.88.14-2.45-.18-5.11,0-7.54.05-.68.4-1.19,1.11-1.28.76-.09,2.86-.08,3.57.12,2.42.68,3.02,3.93,1.03,5.48-.31.25-1.15.66-1.53.66h-1.66ZM23.96,38.34h1.41c.24,0,.49-.42.48-.66,0-.22-.27-.6-.48-.6h-1.41v1.26Z"/>
  <path class="st1" d="M34.28,25.52c.34-.24.58-.62.99-.78,1.68-.65,3.02,1.21,1.85,2.67-.62.78-2.56,2.71-3.33,3.33s-1.54.61-2.31,0-2.71-2.56-3.33-3.33c-1.16-1.46.18-3.33,1.85-2.67.41.16.65.54.99.78v-4.92c0-.7.94-1.35,1.61-1.36s1.69.63,1.69,1.36v4.92Z"/>
  <path class="st1" d="M14.39,21.28l10.99-9.39v-.03h21.99c1.2,0,2.18.94,2.18,2.1v36.14c0,1.16-.98,2.1-2.18,2.1h-30.78c-1.2,0-2.18-.94-2.18-2.1v-28.82h-.02ZM17.34,49.27h29.28V14.8h-21.24v6.48h-8.04v27.99Z"/>
</svg>